<svg id="SvgjsSvg1001" width="550" height="550" xmlns="http://www.w3.org/2000/svg" version="1.1" xmlns:xlink="http://www.w3.org/1999/xlink" xmlns:svgjs="http://svgjs.com/svgjs"><defs id="SvgjsDefs1002"></defs><g id="SvgjsG1008"><svg xmlns="http://www.w3.org/2000/svg" enable-background="new 0 0 2000 2000" viewBox="0 0 2000 2000" width="550" height="550"><path fill="" fill-rule="evenodd" d="M0 0h2000v2000H0z" clip-rule="evenodd" opacity=".5" class="colorfff svgShape"></path><path fill="#d5f0ff" fill-rule="evenodd" d="M857 1613.7c456.6 0 829-351.4 829-782.1S1313.6 49.4 857 49.4 28 400.8 28 831.6s372.4 782.1 829 782.1z" clip-rule="evenodd" class="colord5f0ff svgShape"></path><path fill="#d5f0ff" fill-rule="evenodd" d="M1143 1931.6c456.6 0 829-351.4 829-782.1s-372.4-782.1-829-782.1-829 351.4-829 782.1 372.4 782.1 829 782.1z" clip-rule="evenodd" class="colord5f0ff svgShape"></path><path fill="#8dafdc" fill-rule="evenodd" d="M1472.9 155.9c-37.9-28.8-85.2-45.8-136.3-45.8-124.6 0-225.7 101-225.7 225.7 0 124.6 101.1 225.7 225.7 225.7 22.9 0 45-3.4 65.9-9.8 7.8 2 16.1 3.1 24.6 3.1 17.4 0 33.7-4.5 47.9-12.4 22.3 14.5 49 23 77.6 23 34.7 0 66.6-12.5 91.3-33.2 33.7 27.7 76.8 44.2 123.8 44.2 107.7 0 195.2-87.4 195.2-195.1 0-98.4-72.8-179.7-167.4-193.2-15-77.9-83.6-136.9-166.1-136.9-70.7 0-131.1 43.3-156.5 104.7z" clip-rule="evenodd" class="color8dafdc svgShape"></path><path fill="#ffffff" fill-rule="evenodd" d="M1448.8 155.9c-37.9-28.8-85.2-45.8-136.3-45.8-124.6 0-225.7 101-225.7 225.7 0 124.6 101.1 225.7 225.7 225.7 22.9 0 45-3.4 65.9-9.8 7.8 2 16.1 3.1 24.6 3.1 17.4 0 33.7-4.5 47.9-12.4 22.3 14.5 49 23 77.6 23 34.7 0 66.6-12.5 91.3-33.2 33.7 27.7 76.8 44.2 123.8 44.2 107.7 0 195.2-87.4 195.2-195.1 0-98.4-72.8-179.7-167.4-193.2-15-77.9-83.6-136.9-166.1-136.9-70.7 0-131.2 43.3-156.5 104.7z" clip-rule="evenodd" class="colorfff svgShape"></path><path fill="#ffffff" d="m631.1 99.1 9.4 30.5 30.5 9.3-30.5 9.4-9.4 30.5-9.3-30.5-30.5-9.4 30.5-9.3zM247.4 965.8l9.4 30.5 30.5 9.3-30.5 9.4-9.4 30.5-9.4-30.5-30.5-9.4 30.5-9.3zM169.2 729.1l6.7 21.9 21.9 6.7-21.9 6.7-6.7 21.9-6.7-21.9-21.9-6.7 21.9-6.7zM1841 1075.8l6.8 21.9 21.9 6.7-21.9 6.7-6.8 21.9-6.7-21.9-21.9-6.7 21.9-6.7zM1071.2 1000.3l6.7 21.9 21.9 6.7-21.9 6.7-6.7 21.9-6.7-21.9-21.9-6.7 21.9-6.7zM925.5 110.3l6.7 21.9 21.9 6.7-21.9 6.7-6.7 21.9-6.7-21.9-21.9-6.7 21.9-6.7z" class="colorfff svgShape"></path><path fill="#0ebaa0" fill-rule="evenodd" d="M1274 1940h-16.7c-36-59.3-113-152.5-135.9-177.6-2.9-3.2-4.9-5.2-5.9-6 .3-.8 2.8 1.1 6.8 5 11.3 11 35.1 38.1 62 69.7 8.9 10.5 18.2 21.5 27.4 32.6 22.7 27.1 45.2 54.7 62.3 76.3z" clip-rule="evenodd" class="color0ebaa0 svgShape"></path><path fill="#0ebaa0" fill-rule="evenodd" d="M1098 1737.9c5.9 2.1 13.3.6 18.5 5.8 5.2 5.2 7.1 12.3 5.6 18.5-6.2 1.4-13.3-.6-18.5-5.8-5.1-5.2-3.7-12.1-5.6-18.5zM1110 1782.9c3.8-2.5 6.1-7.5 11.4-8.3 5.3-.8 10.3 1.2 13.3 4.7-1.9 4.2-6.1 7.5-11.4 8.3-5.3.8-8.7-3-13.3-4.7zM1133.1 1751.2c1.2 3.1 4.3 5.5 4 9.4-.3 3.9-2.5 7.1-5.5 8.6-2.7-2-4.3-5.5-4-9.4.3-3.9 3.6-5.6 5.5-8.6zM1158.7 1762.8c-3.1 4.9-9.4 8.2-10.2 15.1-.7 6.8 2 13.2 6.6 16.9 5.3-2.6 9.4-8.2 10.2-15 .8-7-4.3-11.2-6.6-17zM1125 1815.8c5.4-3.6 8.8-10.8 16.4-11.9 7.6-1.1 14.8 1.7 19.1 6.8-2.7 6.1-8.8 10.8-16.4 11.9-7.7 1.1-12.6-4.5-19.1-6.8zM1190.5 1779.7c-5 6.7-14.4 10.6-16.2 20.3-1.9 9.7 1.2 19.1 7.5 24.9 8-3.1 14.4-10.6 16.3-20.3 1.8-9.7-5-16.3-7.6-24.9zM1132.7 1857.4c8.8-5.9 14.4-17.6 26.8-19.4 12.4-1.8 24.1 2.8 31.1 11-4.4 9.9-14.4 17.6-26.8 19.4-12.4 1.8-20.4-7.2-31.1-11zM1236.9 1799.9c-8.5 9.5-23.3 14.2-27.4 28.7-4.2 14.5-.6 29.1 8 38.8 12.5-3.6 23.3-14.2 27.4-28.7s-5.2-25.4-8-38.8zM1144.9 1905.4c13.7-7.2 23.6-23.2 41.8-23.8 18.2-.6 34.4 7.9 43.3 20.9-7.9 13.6-23.6 23.2-41.8 23.8-18.2.6-28.3-13.7-43.3-20.9zM1274.1 1940c1.2-20.4 1.1-44.9.2-71.4-.7-19.4-1.8-39.9-3.2-60.4-5.3-76.4-14.5-153.7-19.3-182.8-.9-5.7-1.7-9.6-2.2-11.2 1-.6 2.3 3.3 4 10.7 6.3 28.1 16.9 106.8 26.2 185.6 2.7 22.8 5.2 45.6 7.6 67.2 2.4 22.5 4.6 43.7 6.3 62.2h-19.6z" clip-rule="evenodd" class="color0ebaa0 svgShape"></path><path fill="#0ebaa0" fill-rule="evenodd" d="M1243.5 1580.4c5.1 6.7 14.6 10.5 16.6 20.3 2 9.7-1.1 19.2-7.3 25.2-8-3-14.6-10.5-16.6-20.3-2-9.8 4.7-16.6 7.3-25.2zM1223.8 1640.3c6.1-.1 12.5-4 19.1-1 6.6 3.1 10.8 9 11.6 15.2-5.3 3.4-12.5 4-19.1 1-6.6-3.1-7.6-9.9-11.6-15.2zM1273.4 1621.4c-.9 4.4.8 9.5-2.4 13.6s-8.1 6.1-12.6 5.7c-1.6-4.3-.8-9.5 2.4-13.6s8.3-3.7 12.6-5.7zM1293.9 1653.5c-7.2 3.3-16.7 2.3-22.6 9.5-5.9 7.2-7.5 16.4-5 24.1 8 1 16.7-2.3 22.6-9.5 5.9-7.2 3.3-15.8 5-24.1zM1216.4 1688.7c8.8-.1 17.9-5.7 27.3-1.3 9.4 4.4 15.5 12.9 16.6 21.8-7.5 4.9-17.9 5.7-27.4 1.3-9.3-4.5-10.8-14.3-16.5-21.8zM1317.4 1696.2c-10.6 3.9-24.1 1.4-33.4 11-9.3 9.6-12.7 22.5-9.9 33.7 11.3 2.4 24.1-1.4 33.4-11 9.3-9.5 6.5-22 9.9-33.7zM1194.4 1741.5c14.4-.2 29.3-9.3 44.7-2.2 15.4 7.1 25.3 21 27.2 35.6-12.3 8-29.3 9.3-44.7 2.2-15.4-7.2-17.8-23.3-27.2-35.6zM1355.1 1753.3c-16.7 4.5-36.9-1.1-52.3 12.2-15.4 13.3-22.3 32.6-19.6 50 16.9 5.1 36.9 1.1 52.3-12.2 15.4-13.3 12.8-32.7 19.6-50zM1172.8 1805.1c20.8 2 43.8-8.9 65 3.9 21.1 12.8 33.2 34.4 33.6 55.7-19.1 9.6-43.8 8.9-65-3.9-21.1-12.8-22-36.5-33.6-55.7z" clip-rule="evenodd" class="color0ebaa0 svgShape"></path><path fill="#0ebaa0" fill-rule="evenodd" d="M1382 1681.2c-6 38-41.5 173.7-66 258.8h-16.8c33.5-75.5 72.3-218.6 81.2-259 1.1-5 1.7-8.4 1.8-10 1-.1.9 3.5-.2 10.2z" clip-rule="evenodd" class="color0ebaa0 svgShape"></path><path fill="#0ebaa0" fill-rule="evenodd" d="M1388.2 1641.2c2 7.2 8.6 13.4 7 22.1-1.5 8.7-7.2 15.5-14.2 18.3-5.6-5.1-8.6-13.4-7-22.1 1.5-8.6 9.3-12 14.2-18.3zM1352.4 1684.1c5.1 1.9 11.6.8 16 5.4 4.4 4.7 6 10.9 4.6 16.3-5.4 1.1-11.6-.8-16-5.4-4.4-4.7-3-10.6-4.6-16.3zM1399.4 1684.8c-2.2 3.3-2.4 8.1-6.4 10.4-4 2.4-8.7 2.4-12.2.6.1-4 2.4-8 6.4-10.4 4-2.4 8-.4 12.2-.6zM1405.8 1717.9c-7 .4-14.5-3.5-21.7.5-7.2 4-11.6 11-12 18.1 6.3 3.5 14.5 3.6 21.7-.4 7.3-4.1 7.9-12 12-18.2zM1330.6 1721.4c7.3 2.8 16.6 1.2 22.9 7.8 6.3 6.7 8.5 15.6 6.6 23.3-7.8 1.6-16.6-1.1-22.9-7.8-6.4-6.6-4.3-15.2-6.6-23.3zM1411.2 1760.6c-10-.3-20.3-6.7-31.1-1.9-10.8 4.8-17.8 14.4-19.2 24.5 8.5 5.6 20.3 6.7 31.1 1.9 10.8-4.8 12.6-16 19.2-24.5zM1295.3 1757.8c11.9 4.5 27.1 1.9 37.5 12.8 10.3 10.9 14 25.5 10.7 38.1-12.7 2.5-27.1-1.9-37.5-12.8-10.3-10.9-7.1-25-10.7-38.1zM1423.5 1819.9c-15.2-1.7-30-12.9-47-7s-28.9 19.5-32.4 34.7c12.2 9.7 30 12.9 47 7s21.3-22.7 32.4-34.7zM1256.8 1803c16.5 8.4 39 7 52.1 24.5 13.2 17.4 16.1 39.1 9.4 56.8-18.8 1.7-38.9-7-52.1-24.4-13.2-17.5-6.2-37.3-9.4-56.9z" clip-rule="evenodd" class="color0ebaa0 svgShape"></path><path fill="#4b76ba" fill-rule="evenodd" d="M180.6 225.4c78.6 0 142.8 64.2 142.8 142.8v91H37.7v-91c0-78.6 64.2-142.8 142.9-142.8z" clip-rule="evenodd" class="color4b76ba svgShape"></path><path fill="#8dafdc" fill-rule="evenodd" d="M447.3 225.4h913c68.8 0 125.1 56.1 125.1 124.9v1459.9c0 68.8-56.4 124.9-125.1 124.9h-913c-63.2 0-115.5-47.3-123.9-107.9V368.3c0-65.7-44.7-121.1-105.2-137.8-8.3-2.5-16.9-4.3-25.8-5.1h254.9z" clip-rule="evenodd" class="color8dafdc svgShape"></path><path fill="#ffffff" fill-rule="evenodd" d="M423.1 1024.4h977.8c1.8 0 3 1.4 3 3.3v17.4c0 1.9-1.3 3.3-3 3.3H423.1c-1.5 0-3-1.4-3-3.3v-17.4c0-1.9 1.5-3.3 3-3.3zM423.1 1070.5h977.8c1.8 0 3 1.7 3 3.6v17.4c0 1.7-1.3 3.3-3 3.3H423.1c-1.5 0-3-1.7-3-3.3v-17.4c0-1.9 1.5-3.6 3-3.6zM423.1 1118h977.8c1.8 0 3 1.4 3 3.3v17.4c0 1.9-1.3 3.3-3 3.3H423.1c-1.5 0-3-1.4-3-3.3v-17.4c0-1.9 1.5-3.3 3-3.3zM423.1 1164.2h977.8c1.8 0 3 1.7 3 3.3v17.7c0 1.7-1.3 3.3-3 3.3H423.1c-1.5 0-3-1.7-3-3.3v-17.7c0-1.7 1.5-3.3 3-3.3zM524.8 1209.5h876.5c1.6 0 2.7 1.7 2.7 3.3v17.7c0 1.7-1.1 3.3-2.7 3.3H524.8c-1.4 0-2.7-1.7-2.7-3.3v-17.7c0-1.7 1.3-3.3 2.7-3.3zM423.1 1255.9h977.8c1.8 0 3 1.4 3 3.3v17.4c0 1.9-1.3 3.3-3 3.3H423.1c-1.5 0-3-1.4-3-3.3v-17.4c0-1.9 1.5-3.3 3-3.3zM423.1 1303.1h977.8c1.8 0 3 1.7 3 3.3v17.7c0 1.7-1.3 3.3-3 3.3H423.1c-1.5 0-3-1.7-3-3.3v-17.7c0-1.6 1.5-3.3 3-3.3zM423.1 1349.6h977.8c1.8 0 3 1.4 3 3.3v17.4c0 1.9-1.3 3.3-3 3.3H423.1c-1.5 0-3-1.4-3-3.3v-17.4c0-2 1.5-3.3 3-3.3zM524.8 652h876.5c1.6 0 2.7 1.4 2.7 3.3v17.4c0 1.9-1.1 3.3-2.7 3.3H524.8c-1.4 0-2.7-1.4-2.7-3.3v-17.4c0-1.9 1.3-3.3 2.7-3.3zM423.1 698.2h977.8c1.8 0 3 1.7 3 3.6v17.4c0 1.7-1.3 3.3-3 3.3H423.1c-1.5 0-3-1.7-3-3.3v-17.4c0-2 1.5-3.6 3-3.6zM423.1 745.7h977.8c1.8 0 3 1.4 3 3.3v17.4c0 1.9-1.3 3.3-3 3.3H423.1c-1.5 0-3-1.4-3-3.3V749c0-1.9 1.5-3.3 3-3.3zM423.1 791.8h977.8c1.8 0 3 1.7 3 3.3v17.7c0 1.7-1.3 3.3-3 3.3H423.1c-1.5 0-3-1.7-3-3.3v-17.7c0-1.6 1.5-3.3 3-3.3zM423.1 837.1h977.8c1.8 0 3 1.7 3 3.3v17.7c0 1.7-1.3 3.3-3 3.3H423.1c-1.5 0-3-1.7-3-3.3v-17.7c0-1.6 1.5-3.3 3-3.3zM524.8 883.6h876.5c1.6 0 2.7 1.4 2.7 3.3v17.4c0 1.9-1.1 3.3-2.7 3.3H524.8c-1.4 0-2.7-1.4-2.7-3.3v-17.4c0-2 1.3-3.3 2.7-3.3zM423.1 930.8h977.8c1.8 0 3 1.7 3 3.3v17.7c0 1.7-1.3 3.3-3 3.3H423.1c-1.5 0-3-1.7-3-3.3v-17.7c0-1.6 1.5-3.3 3-3.3zM423.1 977.2h977.8c1.8 0 3 1.4 3 3.3v17.4c0 1.9-1.3 3.3-3 3.3H423.1c-1.5 0-3-1.4-3-3.3v-17.4c0-1.9 1.5-3.3 3-3.3zM524.8 1395.7h876.5c1.6 0 2.7 1.7 2.7 3.6v17.4c0 1.7-1.1 3.3-2.7 3.3H524.8c-1.4 0-2.7-1.7-2.7-3.3v-17.4c0-1.9 1.3-3.6 2.7-3.6zM423.1 1442.1h977.8c1.8 0 3 1.7 3 3.3v17.4c0 1.9-1.3 3.6-3 3.6H423.1c-1.5 0-3-1.7-3-3.6v-17.4c0-1.6 1.5-3.3 3-3.3zM423.1 1489.4h977.8c1.8 0 3 1.7 3 3.6v17.4c0 1.7-1.3 3.3-3 3.3H423.1c-1.5 0-3-1.7-3-3.3V1493c0-2 1.5-3.6 3-3.6zM423.1 1535.8h977.8c1.8 0 3 1.4 3 3.3v17.4c0 1.9-1.3 3.3-3 3.3H423.1c-1.5 0-3-1.4-3-3.3v-17.4c0-2 1.5-3.3 3-3.3z" clip-rule="evenodd" class="colorfff svgShape"></path><path fill="#4b76ba" fill-rule="evenodd" d="M1773.9 1706c-3.8 126.7-108.7 229-236.1 229h-1043c127.4 0 232.1-102.1 236.1-228.8h1031.4c3.8.1 7.8.1 11.6-.2z" clip-rule="evenodd" class="color4b76ba svgShape"></path><linearGradient id="a" x1="626.383" x2="728.539" y1="479.722" y2="479.722" gradientUnits="userSpaceOnUse"><stop offset="0" stop-color="#2c7efe" class="stopColor2c7efe svgShape"></stop><stop offset="1" stop-color="#0643a3" class="stopColor0643a3 svgShape"></stop></linearGradient><path fill="url(#a)" d="m704.6 539.5-24.4-35c-1 .1-2.6.2-4.6.2h-27v34.8h-22.2V419.9h49.2c10.4 0 19.4 1.7 27.1 5.1 7.7 3.4 13.6 8.3 17.7 14.7 4.1 6.4 6.1 14 6.1 22.7 0 9-2.2 16.7-6.6 23.2-4.4 6.5-10.7 11.3-18.9 14.5l27.5 39.3h-23.9zm-8-94.6c-5-4.1-12.4-6.1-22-6.1h-26v47.7h26c9.7 0 17-2.1 22-6.2 5-4.2 7.5-10 7.5-17.7 0-7.8-2.5-13.6-7.5-17.7z"></path><linearGradient id="b" x1="751.257" x2="840.943" y1="479.722" y2="479.722" gradientUnits="userSpaceOnUse"><stop offset="0" stop-color="#2c7efe" class="stopColor2c7efe svgShape"></stop><stop offset="1" stop-color="#0643a3" class="stopColor0643a3 svgShape"></stop></linearGradient><path fill="url(#b)" d="M840.9 520.9v18.6h-89.7V419.9h87.3v18.6h-65.1v31.1h57.7v18.3h-57.7v33h67.5z"></path><linearGradient id="c" x1="856.661" x2="968.043" y1="479.722" y2="479.722" gradientUnits="userSpaceOnUse"><stop offset="0" stop-color="#2c7efe" class="stopColor2c7efe svgShape"></stop><stop offset="1" stop-color="#0643a3" class="stopColor0643a3 svgShape"></stop></linearGradient><path fill="url(#c)" d="M887.8 533.3c-9.7-5.3-17.4-12.6-22.9-22-5.5-9.3-8.3-19.9-8.3-31.6 0-11.7 2.8-22.3 8.4-31.6 5.6-9.3 13.2-16.7 23-22 9.7-5.3 20.6-7.9 32.7-7.9 9.8 0 18.7 1.7 26.8 5.1 8.1 3.4 14.9 8.4 20.5 14.9l-14.4 13.5c-8.7-9.3-19.3-14-31.9-14-8.2 0-15.5 1.8-22 5.4-6.5 3.6-11.6 8.6-15.2 14.9-3.6 6.4-5.5 13.6-5.5 21.7s1.8 15.3 5.5 21.7c3.6 6.4 8.7 11.4 15.2 14.9 6.5 3.6 13.8 5.4 22 5.4 12.6 0 23.3-4.7 31.9-14.2l14.4 13.7c-5.6 6.5-12.4 11.4-20.6 14.9-8.1 3.4-17.1 5.1-26.9 5.1-12 0-22.9-2.6-32.7-7.9z"></path><linearGradient id="d" x1="989.394" x2="1011.602" y1="479.722" y2="479.722" gradientUnits="userSpaceOnUse"><stop offset="0" stop-color="#2c7efe" class="stopColor2c7efe svgShape"></stop><stop offset="1" stop-color="#0643a3" class="stopColor0643a3 svgShape"></stop></linearGradient><path fill="url(#d)" d="M989.4 419.9h22.2v119.6h-22.2V419.9z"></path><linearGradient id="e" x1="1043.887" x2="1143.993" y1="479.722" y2="479.722" gradientUnits="userSpaceOnUse"><stop offset="0" stop-color="#2c7efe" class="stopColor2c7efe svgShape"></stop><stop offset="1" stop-color="#0643a3" class="stopColor0643a3 svgShape"></stop></linearGradient><path fill="url(#e)" d="M1120.2 425.1c7.7 3.4 13.6 8.3 17.7 14.7 4.1 6.4 6.1 14 6.1 22.7s-2 16.2-6.1 22.6c-4.1 6.4-10 11.4-17.7 14.8-7.7 3.4-16.7 5.1-27.1 5.1h-27v34.5h-22.2V419.9h49.2c10.3 0 19.4 1.7 27.1 5.2zm-6.1 55c5-4.1 7.5-10 7.5-17.6 0-7.6-2.5-13.5-7.5-17.6-5-4.1-12.4-6.1-22-6.1h-26v47.5h26c9.6-.1 17-2.1 22-6.2z"></path><linearGradient id="f" x1="1166.202" x2="1255.888" y1="479.722" y2="479.722" gradientUnits="userSpaceOnUse"><stop offset="0" stop-color="#2c7efe" class="stopColor2c7efe svgShape"></stop><stop offset="1" stop-color="#0643a3" class="stopColor0643a3 svgShape"></stop></linearGradient><path fill="url(#f)" d="M1255.9 520.9v18.6h-89.7V419.9h87.3v18.6h-65.1v31.1h57.7v18.3h-57.7v33h67.5z"></path><path fill="#f69768" fill-rule="evenodd" d="m1210.5 1192-9.3-26c-9-19.2-13.2-59.6-27-57.7-9.1 2 2.4 26.9-5.9 37.3-24.4 11.5-63.5-53.1-82.4-42.3-28.6 15.2-36.4 57.3-12.6 77.4 12 11.6 62.3 17.2 105.6 31.1l31.6-19.8z" clip-rule="evenodd" class="colorf69768 svgShape"></path><path fill="#ffffff" fill-rule="evenodd" d="M1826.2 1930.7h-321.6l40.4-206 91.6-177.1 144.4 167.7zM1634.9 1382.8l-75.2-181.5-129.6 118.8-208.3-146.3-57.4 59.7 196 185c22.1 20.1 38.1 30 86.4 21.4l188.1-57.1z" clip-rule="evenodd" class="colorfff svgShape"></path><path fill="#ffffff" fill-rule="evenodd" d="m1692.5 1167-87.8 2.8c-39.6 19.1-78.4 57.9-84.6 84.3-17.1 40.4 16.6 313.2 24.9 470.5l-41.6 59.9 149.1-47.3h1.5l167.8 42.6-40.7-64.6c.5-159.9 26.4-408.5 1.6-479.8-18.7-45-60.7-63.6-90.2-68.4z" clip-rule="evenodd" class="colorfff svgShape"></path><path fill="#84b2fe" d="m1649.5 1737.6-59.3-489.6 28.2-6.3 1.1-43.9 6.1.1-1.3 48.7-27.5 6.1 58.7 484.2z" class="color84b2fe svgShape"></path><path fill="#84b2fe" d="M1616.8 1286.1c4.2 0 7.7-3.5 7.7-7.7 0-4.3-3.5-7.8-7.7-7.8-4.3 0-7.8 3.5-7.8 7.8 0 4.2 3.5 7.7 7.8 7.7zM1627.8 1365.2c4.2 0 7.8-3.5 7.8-7.8s-3.6-7.8-7.8-7.8c-4.3 0-7.8 3.5-7.8 7.8s3.5 7.8 7.8 7.8zM1637 1444.5c4.2 0 7.7-3.6 7.7-7.8 0-4.3-3.5-7.8-7.7-7.8-4.3 0-7.8 3.5-7.8 7.8s3.5 7.8 7.8 7.8zM1644.9 1526.7c4.3 0 7.8-3.5 7.8-7.8s-3.5-7.8-7.8-7.8c-4.2 0-7.8 3.5-7.8 7.8s3.5 7.8 7.8 7.8zM1655.4 1601.6c4.2 0 7.7-3.5 7.7-7.8 0-4.2-3.5-7.7-7.7-7.7-4.3 0-7.8 3.5-7.8 7.7 0 4.3 3.5 7.8 7.8 7.8zM1661.8 1685.2c4.2 0 7.7-3.5 7.7-7.7 0-4.3-3.5-7.8-7.7-7.8-4.3 0-7.8 3.5-7.8 7.8 0 4.2 3.5 7.7 7.8 7.7z" class="color84b2fe svgShape"></path><path fill="#fcba95" fill-rule="evenodd" d="m1682 1005.6-81.1 110.9 3.9 53.4c5.2 58.9 62.8 9.8 87.8-2.8l-10.6-161.5z" clip-rule="evenodd" class="colorfcba95 svgShape"></path><path fill="#fcc2a2" fill-rule="evenodd" d="m1708.9 965.3-179.7-8.9c5.5 63.9-41.6 217.2 81.6 189.2 90.8-19.6 91.6-109.5 98.1-180.3z" clip-rule="evenodd" class="colorfcc2a2 svgShape"></path><path fill="#060352" fill-rule="evenodd" d="M1672.4 985.5c-45.1-28-121.1 28-144 11.4-22.2-22.2-109.2 5.8-96.7-26.9 12.4-21.7 33.1-25.9 49.7-38.8-7.8-10.9-23.3-17.1-40.4-20.3 40.4-38.8 76.1-23.3 113.4-6.1 66.8-35.8 114.9-29.5 156.8 1.6 38.8 27.9 7.8 89.5 3.1 130.4 6.1 9.4 20.2-1.6 29.4 2.3-2.3 10.2-7.7 15.6-13.9 19.4 1.6 10.1 8.3 4.7 14.2 12.2-15.8 12.7-41.4 16.5-56.1 14.2 1.4-39.4 4.5-80.3-15.5-99.4z" clip-rule="evenodd" class="color060352 svgShape"></path><path fill="#ffffff" fill-rule="evenodd" d="M1588.5 745.6c6 1.3 11.6 3 17 5 .1-2.5.4-5 .9-7.3 6.4-28.6 45.9-44 87.9-34.5 42.2 9.4 71.1 40.4 64.7 69-.6 2.5-1.5 5-2.6 7.3 3.7.5 7.3 1.1 11.1 1.9 42.1 9.5 71.7 37.2 66.2 61.9-5.6 24.8-44.3 37-86.4 27.5-.7-.2-1.5-.4-2.1-.5l-16 70.9v.1c-2.5 11.1-43.7 11.2-92 .3s-85.5-28.7-83-39.7v-.1l16.3-72.1c-.7-.1-1.5-.3-2.2-.5-42.1-9.4-71.7-37.2-66.1-61.9 5.5-24.6 44.2-36.9 86.3-27.3z" clip-rule="evenodd" class="colorfff svgShape"></path><path fill="#84b2fe" d="M1722.6 876.7c3.9-.3 5.3-.4 16-3.9-38.3-.9-77-9.6-117.9-22.8 36.8 22.1 66.7 23.7 101.9 26.7z" class="color84b2fe svgShape"></path><path fill="#ffffff" d="M1611.7 1104.4c-7.6 14.3-19.5 23.6-32.9 23.6-12.5 0-23.7-8.1-31.3-20.7 8.8 3.4 18.6 5.3 28.9 5.3 12.8 0 24.9-3 35.3-8.2z" class="colorfff svgShape"></path><path fill="#84b2fe" fill-rule="evenodd" d="M1708.9 1337.7h66.6v248.5h-66.6z" clip-rule="evenodd" class="color84b2fe svgShape"></path><path fill="#f69768" fill-rule="evenodd" d="m1705.2 1679.1-24 13.8c-17.3 12.3-56.3 23.6-52 36.9 3.6 8.6 26.1-7.2 37.7-.8 15.6 21.9-40.9 71.9-27 88.6 20.1 25.4 62.8 25.6 78.4-1.4 9.3-13.9 5.9-64.4 11.9-109.4l-25-27.7z" clip-rule="evenodd" class="colorf69768 svgShape"></path><path fill="#ffffff" fill-rule="evenodd" d="M1658.3 1313.1c-28-71.4 93.5-119.3 127.5-66l33.7 205.7c6.6 24.9 1.9 45.1-4.6 68.5l-75.7 189.4-68.3-23.3 57.4-187.9-70-186.4z" clip-rule="evenodd" class="colorfff svgShape"></path><path fill="#153663" fill-rule="evenodd" d="m1071.6 1028.9 22.1-9.2-106.3-254.2 27.6-11.6c13.9-5.8 20.5-22 14.7-35.8l-48.6-116.3c-5.8-13.9-21.9-20.5-35.8-14.7l-77.5 32.4c-13.9 5.8-20.5 21.9-14.7 35.8l48.6 116.3c5.8 13.8 21.9 20.5 35.8 14.7l27.7-11.6 106.4 254.2zM876.9 648.1l9.8-4.1c1.7-.7 3.8.1 4.5 1.9L937 755.6c.7 1.8-.2 3.8-1.9 4.5l-9.8 4.1c-1.7.7-3.8-.1-4.5-1.9L875 652.6c-.7-1.8.2-3.8 1.9-4.5zm72.6-30.4 9.8-4.1c1.7-.7 3.8.1 4.5 1.9l45.8 109.7c.7 1.8-.2 3.8-1.9 4.5l-9.8 4.1c-1.7.7-3.8-.1-4.5-1.9l-45.8-109.7c-.7-1.8.2-3.8 1.9-4.5zm-37 14.9 9.7-4.1c1.8-.7 3.8.1 4.5 1.9l49.8 119.2c.7 1.7-.1 3.8-1.9 4.5l-9.7 4.1c-1.8.7-3.8-.2-4.5-1.9l-49.8-119.2c-.7-1.8.1-3.8 1.9-4.5z" clip-rule="evenodd" class="color153663 svgShape"></path><path fill="#e55379" fill-rule="evenodd" d="M1098.1 1002.1c56.5 109 108.9 209.3 104.4 254.5 1 4.8 1.3 9 1.3 12.8l4.6 10.4c-2.1 3.4-7.5 8.6-14.7 10.1-6.2 4.1-13.7 4.3-17.6 3.4l-4.2-10.5c-2.7-2.6-5.5-5.8-8.2-9.9-35.2-28.6-69.9-136.3-107.8-253.1l42.2-17.7zm67.9 221.5c7-2.9 15.4 1.4 18.9 9.6 3.5 8.3.6 17.4-6.4 20.3-7.1 3-15.5-1.5-18.9-9.7-3.5-8.3-.7-17.2 6.4-20.2z" clip-rule="evenodd" class="colore55379 svgShape"></path><path fill="#f06624" fill-rule="evenodd" d="M698.1 1488.1c13.4 37.5 26.6 79.2 38.5 123.5 47.2 175.1 58.4 324.4 25.1 333.3-33.3 9-98.5-125.8-145.6-300.9-11.9-44.3-21.6-87-28.8-126.1-9.5-67.4 86.9-92.2 110.8-29.8z" clip-rule="evenodd" class="colorf06624 svgShape"></path><path fill="#f4af1c" fill-rule="evenodd" d="M655.8 1530.8c-5.3 4.3-13.7 8.4-23.5 11.1-9.8 2.7-19.1 3.3-25.9 2.2 7.4-.5 16.2-2 25.3-4.5 9.1-2.4 17.4-5.5 24.1-8.8zM671 1551.5c-5.3 4.3-13.7 8.4-23.5 11.1-9.8 2.6-19.1 3.3-25.9 2.2 7.4-.5 16.2-2 25.3-4.5 9.1-2.5 17.4-5.6 24.1-8.8zM669 1581.1c-5.3 4.3-13.7 8.4-23.5 11.1-9.8 2.7-19.1 3.3-25.9 2.2 7.4-.5 16.2-2 25.3-4.5 9.1-2.4 17.4-5.5 24.1-8.8zM693.2 1607.5c-5.3 4.4-13.7 8.4-23.5 11.1-9.8 2.7-19.1 3.3-25.9 2.3 7.5-.5 16.2-2 25.3-4.4 9.2-2.6 17.5-5.7 24.1-9zM690.6 1637.7c-5.3 4.3-13.7 8.4-23.5 11.1-9.8 2.6-19.1 3.3-25.9 2.2 7.4-.5 16.2-2 25.3-4.5 9.2-2.4 17.5-5.5 24.1-8.8zM663.7 1673.6c4.8 1.6 11.3 1.7 18.1-.1 6.7-1.8 12.3-5.2 15.7-9-4.5 2.7-10.1 5.1-16.3 6.7s-12.3 2.4-17.5 2.4zM655 1709.4c6.8 1.1 16.1.4 25.9-2.3 9.8-2.6 18.2-6.7 23.5-11.1-6.7 3.3-15 6.4-24.1 8.8-9.2 2.6-17.9 4.1-25.3 4.6zM670.1 1735.1c5.3 1.5 12.4 1.4 19.8-.6s13.6-5.5 17.4-9.4c-5 2.8-11.1 5.3-18 7.2s-13.5 2.8-19.2 2.8zM662.5 1759.2c6.8 1.1 16 .4 25.9-2.2 9.8-2.6 18.2-6.7 23.5-11.1-6.7 3.3-15 6.4-24.1 8.8-9.2 2.5-17.9 4-25.3 4.5zM678.3 1780.8c6.8 1.1 16.1.4 25.9-2.2 9.8-2.7 18.2-6.7 23.5-11.1-6.7 3.3-15 6.4-24.1 8.8-9.1 2.5-17.8 4-25.3 4.5zM732 1797.7c-5.3 4.3-13.7 8.4-23.5 11.1-9.8 2.7-19.1 3.3-25.9 2.2 7.4-.5 16.2-2 25.3-4.5 9.1-2.5 17.4-5.5 24.1-8.8zM747.9 1826c-5.3 4.3-13.7 8.4-23.5 11.1-9.8 2.7-19.1 3.3-25.9 2.2 7.4-.5 16.2-2 25.3-4.5 9.2-2.4 17.4-5.5 24.1-8.8zM754.2 1849.3c-5.3 4.3-13.7 8.4-23.5 11.1-9.8 2.6-19.1 3.3-25.9 2.2 7.4-.5 16.2-2 25.3-4.5s17.4-5.6 24.1-8.8zM757.2 1878.1c-2.1 1.7-5.4 3.3-9.3 4.4-3.9 1-7.6 1.3-10.3.9 3-.2 6.4-.8 10-1.8 3.6-.9 6.9-2.1 9.6-3.5z" clip-rule="evenodd" class="colorf4af1c svgShape"></path><path fill="#c93727" fill-rule="evenodd" d="M635.3 1474.7c12.8-3.4 22.5-8.7 21.7-11.6-.8-3-11.9-2.6-24.6.9-12.8 3.4-22.5 8.7-21.7 11.6.7 2.9 11.8 2.5 24.6-.9z" clip-rule="evenodd" class="colorc93727 svgShape"></path><path fill="#17878b" fill-rule="evenodd" d="M624.5 1472.2c-15-13.1-28.5-36.1-36-63.9-9.3-34.7-6.8-67.5 4.8-85.8 19.2 10 37.9 37.1 47.2 71.7 7.5 27.8 7.3 54.5.9 73.4l-16.9 4.6z" clip-rule="evenodd" class="color17878b svgShape"></path><path fill="#16b79e" fill-rule="evenodd" d="M556.7 1288.6c3.1 70.6 71.7 116 83 179.4l-17.1 4.6c-50.4-59.6-113.6-130.4-65.9-184z" clip-rule="evenodd" class="color16b79e svgShape"></path><path fill="#4fbd9d" fill-rule="evenodd" d="M621.1 1330.3c23.2 44.3-2.6 96.5 13 139.3l12.1-3.3c9.6-54.4 23.1-120.2-25.1-136z" clip-rule="evenodd" class="color4fbd9d svgShape"></path><g fill="#000000" class="color000 svgShape"><path fill="#17878b" fill-rule="evenodd" d="M673 1780.2c19.2-55.2-35.4-60.5-24.7-118.7 3.2-17.3-32.4-37.8-25.3-86.7 4.1-27.8-20.1-62.4-53.4-57.9-26.7 3.5-30.3-66.4-53.4-102.3-32.6-50.9-82.2-29.4-97.8 36.1-11.4 47.7-68.4 13.2-58.6 115.9 4.8 50.2 22.8 58.9 57.9 70.9 25.5 8.7 12.3 89.2 61.8 102.7 77.3 21.2 42.9-9.7 87.3 52.7 3.8 5.3 40 6.3 54 17.5 10.7 8.7 46.6-14.2 52.2-30.2z" clip-rule="evenodd" class="color17878b svgShape"></path><path fill="#16b79e" fill-rule="evenodd" d="M690.9 1781.6c19.2-55.2-35.5-60.6-24.7-118.7 3.2-17.2-32.4-37.8-25.3-86.7 4-27.8-20.2-62.4-53.4-57.9-26.7 3.5-30.4-66.3-53.4-102.3-32.7-50.9-82.2-29.4-97.9 36.1-11.4 47.8-68.4 13.2-58.6 115.9 4.8 50.2 22.8 58.9 57.9 70.9 25.5 8.7 12.3 89.2 61.8 102.7 77.3 21.2 42.9-9.6 87.3 52.7 3.8 5.3 39.9 6.3 54 17.5 10.8 8.8 46.7-14.1 52.3-30.2z" clip-rule="evenodd" class="color16b79e svgShape"></path><path fill="#75c7ad" fill-rule="evenodd" d="M584.7 1705.8c32.2 41 48.9 257.4 130.2 202.8 72.8-95.6-44-165.8-116.4-219.4l-35.7-50.4c-9.5-38.9-21.2-117.2-28.5-116.7l11.1 96.1c-42.2-42.1-93-134.4-94.6-117.1 14.3 27.6 27.2 48.5 40.8 72.8-21.7-10.2-54.6-35.1-65.2-30.6 24.5 21 51.4 38 81.1 50 20 28.5 78.2 92.4 61.8 85.2-16.4-7.2-65.7-38.8-65.7-38.8-.6 19.1 54.1 44.1 81.1 66.1z" clip-rule="evenodd" class="color75c7ad svgShape"></path><path fill="#16b79e" fill-rule="evenodd" d="M712.3 1874c7.6-46.2-40-93.4-74.4-130.9 32.2 38.8 72.9 85.8 74.4 130.9z" clip-rule="evenodd" class="color16b79e svgShape"></path><path fill="#16b79e" fill-rule="evenodd" d="M725.2 1871.8c9.4-38.4-26.4-82.5-52.1-117.3 23.7 35.7 53.9 79 52.1 117.3z" clip-rule="evenodd" class="color16b79e svgShape"></path><path fill="#54803a" fill-rule="evenodd" d="M718.7 1887.5c-41.8-7.1-72.3-81.6-97.3-136.5 26.6 52.9 58.5 118.8 97.3 136.5z" clip-rule="evenodd" class="color54803a svgShape"></path><path fill="#54803a" fill-rule="evenodd" d="M709.3 1905.2c-41.6-3.5-68.9-73.1-91.5-124.1 24.3 48.9 53.3 110.1 91.5 124.1z" clip-rule="evenodd" class="color54803a svgShape"></path><path fill="#17878b" fill-rule="evenodd" d="M588.9 1898.8c-45.7 36.5-68.9-13.3-120.2 16-15.2 8.7-46.4-18.1-90.2 4.8-24.9 13-65.5 1.6-72.3-31.2-5.5-26.4-72.6-6.7-114.2-16.5-58.8-14-54.9-67.8 1.7-104.3 41.3-26.6-10.2-68.9 90-93.7 48.9-12.1 63.2 2 86.1 31.2 16.6 21.1 88.2-17.9 117.4 24.2 45.6 65.9 5.1 43.7 78.7 64.9 6.3 1.8 19.2 35.6 34.3 45.2 11.7 7.4 2 48.8-11.3 59.4z" clip-rule="evenodd" class="color17878b svgShape"></path><path fill="#16b79e" fill-rule="evenodd" d="M596.1 1915.3c-45.7 36.4-68.9-13.4-120.3 16-15.2 8.7-46.3-18-90.2 4.9-24.9 13-65.5 1.6-72.3-31.2-5.5-26.4-72.6-6.7-114.2-16.5-58.8-14-54.9-67.8 1.7-104.4 41.3-26.5-10.2-68.9 90-93.6 48.9-12.1 63.2 2 86.1 31.1 16.6 21.1 88.2-17.9 117.4 24.3 45.6 65.9 5.1 43.7 78.7 64.9 6.3 1.8 19.1 35.6 34.3 45.2 11.9 7.3 2.2 48.7-11.2 59.3z" clip-rule="evenodd" class="color16b79e svgShape"></path><path fill="#75c7ad" fill-rule="evenodd" d="M489.4 1840.1c49.3 16.9 259.1-39.1 234.5 55.7-66.1 100.4-171 13.4-245.6-37.2l-59.4-17c-39.8 3.9-117.6 18.8-119.5 11.7l94.3-21.3c-53.7-25.9-157.6-43.3-141.8-50.5 30.8 4.4 54.8 9.6 82.2 14.4-16.8-17.1-51.2-39.9-50.5-51.4 27.9 16.1 52.9 35.9 74.1 59.9 33.6 9.5 113.1 43.2 100.9 30.1-12.1-13.1-58.3-49.2-58.3-49.2 17.7-6.6 59.5 36.6 89.1 54.8z" clip-rule="evenodd" class="color75c7ad svgShape"></path><path fill="#16b79e" fill-rule="evenodd" d="M690.4 1904.8c-41.1 22.5-101.4-6.8-148.1-26.8 47.2 17.5 105.1 40.4 148.1 26.8z" clip-rule="evenodd" class="color16b79e svgShape"></path><path fill="#16b79e" fill-rule="evenodd" d="M692.6 1917.7c-33.2 21.6-86.6 2.4-127.9-10.3 41.5 10.7 92.4 24.8 127.9 10.3zM705.3 1906.5c-20.5-37.1-100.9-41.2-161-46.7 58.6 7.7 131.4 15.9 161 46.7z" clip-rule="evenodd" class="color16b79e svgShape"></path><path fill="#54803a" fill-rule="evenodd" d="M718.9 1891.6c-17.1-38-91.8-40.8-147.4-45.2 54.1 6.8 121.5 14 147.4 45.2z" clip-rule="evenodd" class="color54803a svgShape"></path><path fill="#09a98e" fill-rule="evenodd" d="M645.9 1807.8c.6-58.7-64.8-49.7-75.3-109.1-3.2-17.6-52.3-28.3-63.4-77.7-6.3-28.1-47.9-55.5-84.6-42.5-29.5 10.5-61.2-56.6-102-85.6-57.8-41-106.7-7.2-99 60.7 5.6 49.4-73.9 30.6-22.1 128 25.3 47.6 49.6 51.4 94.9 53.9 32.8 1.8 49.4 83.5 111.9 83.8 97.7.5 45.8-20.5 121.7 28.6 6.5 4.2 48.7-4.3 69.3 3 15.9 5.6 48.5-26 48.6-43.1z" clip-rule="evenodd" class="color09a98e svgShape"></path><path fill="#4fbd9d" fill-rule="evenodd" d="M667.3 1804.5c.5-58.7-64.8-49.7-75.4-109.1-3.1-17.6-52.3-28.3-63.4-77.7-6.3-28.1-47.9-55.4-84.6-42.5-29.5 10.5-61.2-56.5-102.1-85.5-57.8-40.9-106.7-7.2-99 60.6 5.6 49.4-73.9 30.6-22.1 128 25.3 47.6 49.6 51.4 94.9 53.9 32.8 1.8 49.4 83.5 111.9 83.8 97.7.5 45.8-20.5 121.7 28.6 6.5 4.2 48.7-4.3 69.3 3 16.1 5.6 48.6-26 48.8-43.1z" clip-rule="evenodd" class="color4fbd9d svgShape"></path><path fill="#b2ded2" fill-rule="evenodd" d="M514.6 1758.4c53.3 31.4 157.8 237.6 230.5 163.4 46.5-111.9-116.2-149.8-221.1-183.1l-61.2-39.7c-26.3-35.4-70.8-108.5-78.9-106l50.6 90.6c-65.4-29.9-160.5-106.5-155.5-89.3 27.4 23.1 50.6 40.1 75.9 60.1-29.1-4.3-77-19.9-87.5-12.8 36.5 14 74.4 23.6 113.5 27.6 34.5 22.6 126.9 69.5 105.1 66.8-21.8-2.7-91.3-20.7-91.3-20.7 6.9 18.7 79.9 28.8 119.9 43.1z" clip-rule="evenodd" class="colorb2ded2 svgShape"></path><g fill="#000000" class="color000 svgShape"><path fill="#4fbd9d" fill-rule="evenodd" d="M728.4 1888.9c-9.4-46.9-83.1-80.5-137.6-108 52.5 29.4 118 64.5 137.6 108z" clip-rule="evenodd" class="color4fbd9d svgShape"></path><path fill="#4fbd9d" fill-rule="evenodd" d="M742.4 1883.4c-4.3-39.8-63.1-73.4-106.4-100.5 41.6 28.4 93.5 62.8 106.4 100.5zM741.1 1900.3c-51.1 4-115.8-60.5-166.3-107.4 51.6 44.4 114.4 100.3 166.3 107.4z" clip-rule="evenodd" class="color4fbd9d svgShape"></path><path fill="#4fbd9d" fill-rule="evenodd" d="M737.1 1920c-49.4 7.4-108.4-53.2-154.8-96.9 47.5 41.2 105.2 93.1 154.8 96.9z" clip-rule="evenodd" class="color4fbd9d svgShape"></path></g></g><g fill="#000000" class="color000 svgShape"><path fill="#db3a55" fill-rule="evenodd" d="M844.5 1917.7c27.8 0 50.5-60.5 50.5-134.7 0-74.2-22.7-134.7-50.5-134.7S794 1708.8 794 1783c0 74.2 22.6 134.7 50.5 134.7z" clip-rule="evenodd" class="colordb3a55 svgShape"></path><path fill="#db3a55" fill-rule="evenodd" d="M910.7 1917.7c27.9 0 50.6-60.5 50.6-134.7 0-74.2-22.7-134.7-50.6-134.7-27.9 0-50.6 60.5-50.6 134.7 0 74.2 22.7 134.7 50.6 134.7z" clip-rule="evenodd" class="colordb3a55 svgShape"></path><path fill="#17878b" fill-rule="evenodd" d="M963.3 1656.2c14.2 11 22.7 24.8 22.7 39.8 0 35.9-48.5 65-108.4 65-59.9 0-108.4-29.1-108.4-65 0-15 8.5-28.8 22.7-39.8 12.4 2.1 25.5 3.7 39.2 4.8 14.2 3.2 30 5 46.6 5s32.3-1.8 46.6-5c13.5-1.1 26.7-2.7 39-4.8z" clip-rule="evenodd" class="color17878b svgShape"></path><linearGradient id="g" x1="892.203" x2="1015.104" y1="1793.119" y2="1793.119" gradientUnits="userSpaceOnUse"><stop offset="0" stop-color="#e9708a" class="stopColore9708a svgShape"></stop><stop offset="1" stop-color="#db3a55" class="stopColordb3a55 svgShape"></stop></linearGradient><path fill="url(#g)" fill-rule="evenodd" d="M970 1656.2c32.7 3.5 51.9 67.7 42.9 143.3-9 75.6-42.9 134-75.6 130.5-32.7-3.5-51.9-67.7-42.9-143.3 9.1-75.6 42.9-134 75.6-130.5z" clip-rule="evenodd"></path><linearGradient id="h" x1="740.101" x2="863.001" y1="1793.119" y2="1793.119" gradientUnits="userSpaceOnUse"><stop offset="0" stop-color="#e9708a" class="stopColore9708a svgShape"></stop><stop offset="1" stop-color="#db3a55" class="stopColordb3a55 svgShape"></stop></linearGradient><path fill="url(#h)" fill-rule="evenodd" d="M785.2 1656.2c-32.7 3.5-51.9 67.7-42.9 143.3 9 75.6 42.9 134 75.6 130.5 32.7-3.5 51.9-67.7 42.9-143.3-9.1-75.6-42.9-134-75.6-130.5z" clip-rule="evenodd"></path><path fill="#16b79e" fill-rule="evenodd" d="M906.9 1605.9c-25.2 22.2-6.9 49.7-26.9 77.8h-31.8c24.6-29.6 2.9-57.2 29.3-77.9 9.9.1 19.7.1 29.4.1z" clip-rule="evenodd" class="color16b79e svgShape"></path><linearGradient id="i" x1="818.003" x2="937.201" y1="1801.214" y2="1801.214" gradientUnits="userSpaceOnUse"><stop offset="0" stop-color="#e9708a" class="stopColore9708a svgShape"></stop><stop offset="1" stop-color="#db3a55" class="stopColordb3a55 svgShape"></stop></linearGradient><path fill="url(#i)" fill-rule="evenodd" d="M877.6 1946.4c32.8 0 59.6-65.2 59.6-145.2 0-80-26.8-145.2-59.6-145.2s-59.6 65.2-59.6 145.2c0 80 26.8 145.2 59.6 145.2z" clip-rule="evenodd"></path></g><g fill="#000000" class="color000 svgShape"><path fill="#09a98e" d="m1826.6 1949.2-3.3-1.9c45.5-77.4 82.5-192.9 62.7-276.6l3.7-.9c9.3 39.4 6.7 89.2-7.5 144.1-11.9 46.6-31.7 94.7-55.6 135.3z" class="color09a98e svgShape"></path><path fill="#09a98e" d="M1823.2 1948.9c-20.8-87.3-74.1-196.3-146.4-243l2.1-3.2c34 22 66.7 59.7 94.4 109.1 23.7 42 42.7 90.4 53.6 136.2l-3.7.9z" class="color09a98e svgShape"></path><path fill="#09a98e" d="m1826.8 1948.5-3.8-.5c12.7-88.8 3.2-209.8-46.8-279.8l3.1-2.2c23.5 32.9 40.1 80 47.7 136.1 6.6 47.8 6.5 99.8-.2 146.4z" class="color09a98e svgShape"></path><path fill="#16b79e" fill-rule="evenodd" d="M1890.2 1681.4c-6.8-5.8-13.3-8.2-17.7-16.8-4.4-8.6-3.2-22.5 2.5-24.3 4.8-2.2 15.6 7.2 17.7 16.8 2.1 9.6-.9 14.9-2.5 24.3zM1893.1 1717.5c-7.7 2.3-12.8 6-21.5 5.1-8.7-.9-18.7-8.7-17.2-13.9.7-4.7 13.1-8.2 21.5-5.1 8.3 3.1 10.9 8 17.2 13.9zM1893.4 1717.4c7.3 3.4 11.8 7.8 20.6 8.1 8.8.3 19.7-6 19-11.4-.1-4.8-11.9-10-20.6-8.1-8.8 2-11.9 6.5-19 11.4zM1891.3 1756.2c-7.7 2.3-12.8 6-21.5 5.1-8.7-.9-18.7-8.7-17.2-13.9.7-4.8 13.1-8.2 21.5-5.1 8.3 3.1 10.9 8 17.2 13.9zM1891.6 1756.1c7.3 3.4 11.8 7.8 20.6 8.1 8.8.3 19.7-6 19-11.4-.1-4.8-11.9-10-20.6-8.1-8.8 1.9-11.9 6.4-19 11.4zM1885.1 1794.1c-7.9 1.9-13.1 5.3-21.8 3.9-8.6-1.4-18.1-9.8-16.3-14.9 1-4.7 13.6-7.5 21.8-3.8 8.2 3.5 10.4 8.6 16.3 14.8zM1885.5 1794.1c7.1 3.8 11.4 8.4 20.1 9.3 8.7.8 20-4.8 19.6-10.2.2-4.8-11.3-10.7-20.1-9.3-8.9 1.3-12.3 5.6-19.6 10.2zM1874.8 1833c-8 1.3-13.5 4.3-22 2.3s-17.4-11.1-15.2-16c1.3-4.6 14.1-6.5 22-2.3s9.7 9.4 15.2 16zM1875.2 1833c6.8 4.3 10.7 9.2 19.4 10.7 8.6 1.5 20.3-3.4 20.3-8.8.6-4.8-10.5-11.5-19.3-10.7-9.1.8-12.8 4.8-20.4 8.8zM1863.2 1867.7c-8.1.2-13.9 2.4-22.1-.8-8.2-3.2-15.6-13.4-12.8-18 2-4.4 14.9-4.4 22.1.8 7.2 5.2 8.3 10.6 12.8 18zM1863.6 1867.7c6.2 5.2 9.3 10.6 17.7 13.3 8.3 2.6 20.6-.5 21.3-5.9 1.2-4.6-8.8-12.8-17.7-13.3-8.9-.5-13.2 3-21.3 5.9zM1687.2 1710.8c-8.9.6-15.3 3.3-24.4.2-9.1-3.1-17.9-14-15.1-19.2 2-4.9 16.2-5.6 24.4-.2 8.3 5.4 9.8 11.3 15.1 19.2zM1714.3 1734.8c-4 7-5 13.2-12 18.6-6.9 5.4-19.5 6.7-22 1.9-2.8-3.9 3.8-15.1 12-18.6 8.2-3.5 13.4-1.8 22-1.9zM1714.5 1734.5c7.6-2.7 13.9-2.6 20.4-8.4 6.5-5.8 10-18 5.8-21.3-3.4-3.4-15.5 1-20.4 8.4-5 7.4-4.1 12.9-5.8 21.3zM1739.8 1763.9c-4 7-5 13.2-11.9 18.6-6.9 5.4-19.5 6.7-22 1.9-2.8-3.9 3.8-15 11.9-18.6 8.1-3.5 13.3-1.7 22-1.9zM1740 1763.6c7.6-2.6 13.9-2.6 20.4-8.4 6.5-5.8 10-18 5.8-21.3-3.4-3.4-15.5 1-20.4 8.4-5 7.4-4.2 12.9-5.8 21.3zM1761.7 1795.6c-4.4 6.8-5.8 12.9-13 17.9-7.2 5-19.8 5.5-22.1.6-2.5-4.1 4.6-14.8 13-17.9 8.3-3.1 13.4-1 22.1-.6zM1761.9 1795.3c7.8-2.2 14-1.8 20.9-7.2 6.9-5.4 11.1-17.4 7-21-3.2-3.6-15.5.1-20.9 7.2-5.4 7.1-4.9 12.6-7 21zM1781.2 1830.8c-4.9 6.5-6.7 12.4-14.3 16.9-7.6 4.4-20.2 4.1-22.1-1-2.2-4.3 5.7-14.4 14.3-16.9 8.6-2.5 13.5 0 22.1 1zM1781.4 1830.5c7.9-1.6 14.1-.8 21.4-5.7 7.2-4.9 12.3-16.5 8.5-20.4-2.9-3.8-15.5-1-21.4 5.7-5.9 6.7-5.8 12.2-8.5 20.4zM1796.8 1863.8c-5.7 5.7-8.4 11.4-16.5 14.7-8.1 3.3-20.6 1.2-21.7-4.1-1.6-4.5 7.7-13.5 16.5-14.7 8.8-1.2 13.4 1.9 21.7 4.1z" clip-rule="evenodd" class="color16b79e svgShape"></path><path fill="#16b79e" fill-rule="evenodd" d="M1797.1 1863.6c8.1-.5 14.1 1.2 21.9-2.7 7.9-3.9 14.5-14.6 11.3-19-2.3-4.2-15.2-3.2-21.9 2.7-6.8 5.8-7.5 11.3-11.3 19z" clip-rule="evenodd" class="color16b79e svgShape"></path><path fill="#4fbd9d" fill-rule="evenodd" d="M1784.1 1676.6c-8.5-2.7-15.4-2.5-22.8-8.8-7.4-6.3-11.5-19.6-6.9-23.4 3.6-3.9 17.1.7 22.8 8.8 5.6 8.1 4.8 14.1 6.9 23.4zM1800.5 1708.9c-6.3 5.1-9.6 10.4-18 12.9s-20.6-1-21.2-6.4c-1.1-4.7 9-12.6 17.9-12.9 9-.2 13.2 3.4 21.3 6.4zM1800.8 1708.7c8.1.4 13.9 2.7 22.1-.3 8.2-3 15.9-13 13.2-17.7-1.9-4.4-14.8-4.8-22.1.3-7.3 5.1-8.6 10.5-13.2 17.7zM1813.5 1745.4c-6.3 5.1-9.6 10.4-17.9 12.9-8.4 2.5-20.6-1-21.2-6.4-1.1-4.7 9-12.6 18-12.9 8.8-.3 13 3.3 21.1 6.4zM1813.8 1745.2c8.1.4 13.9 2.7 22.1-.3 8.2-3 16-13 13.2-17.7-1.9-4.4-14.8-4.8-22.1.3-7.4 5-8.6 10.4-13.2 17.7zM1822.2 1782.8c-6.6 4.7-10.1 9.9-18.7 11.8-8.5 2-20.5-2.2-20.8-7.6-.8-4.7 9.8-12.1 18.7-11.8 8.9.3 12.9 4.1 20.8 7.6zM1822.5 1782.7c8 .8 13.7 3.5 22.1 1 8.4-2.5 16.7-12.1 14.3-16.9-1.6-4.5-14.5-5.6-22.1-1-7.7 4.6-9.2 9.9-14.3 16.9zM1827.4 1822.8c-6.9 4.2-10.8 9.1-19.5 10.5-8.6 1.4-20.3-3.7-20.2-9.1-.5-4.8 10.6-11.3 19.5-10.5 8.9.9 12.6 5 20.2 9.1zM1827.7 1822.6c8 1.4 13.4 4.5 22 2.5 8.5-1.9 17.5-10.8 15.4-15.8-1.3-4.6-14-6.6-22-2.6-7.9 4.1-9.8 9.3-15.4 15.9zM1829.8 1859.2c-7.4 3.2-12 7.5-20.8 7.6-8.8.1-19.6-6.4-18.7-11.8.2-4.8 12.1-9.7 20.8-7.6 8.7 2.1 11.8 6.7 18.7 11.8zM1830.1 1859.1c7.7 2.5 12.7 6.3 21.4 5.6 8.7-.7 18.9-8.3 17.5-13.5-.6-4.8-13-8.5-21.4-5.6-8.4 2.9-11 7.7-17.5 13.5z" clip-rule="evenodd" class="color4fbd9d svgShape"></path></g><path fill="#ff9898" fill-rule="evenodd" d="M1481.3 1687.1c-.8 74.7-45.2 152.9-75 176.4-98 81.7-206.3 79.5-270.7 75-42-1.8-156.6-42.7-145.7-160.9 163.8-30.1 327.6-60.3 491.4-90.5z" clip-rule="evenodd" class="colorff9898 svgShape"></path><path fill="#ffffff" fill-rule="evenodd" d="M1378.4 1585.1c34.5-34 120.3 43.4 100.8 112.2-12.1 37.8-24.4 124.6-193.5 179.7-65.3 14.5-180.3 34.1-244.8-21.1-47.2-39.3-68.6-74.2-34-129.9 31-47.6 65.8-61.8 136.2-69.9 37.9-6.3 144.4-2.1 235.3-71z" clip-rule="evenodd" class="colorfff svgShape"></path><path fill="#ff6565" fill-rule="evenodd" d="M1090.1 1861.8c55.3-38.3 205.2-75.2 209.7-76.9 26.6-5.9 69.9 25.8 79.5 38.1-41.1 16.7-137.3 86.1-289.2 38.8z" clip-rule="evenodd" class="colorff6565 svgShape"></path><path fill="#ff6565" fill-rule="evenodd" d="M1301.5 1717.6c-21.5 126.4-282.9 110.9-294.8 61.7-11.9-49.1 60.4-107.4 82.9-110.5 22.5-3.1 234-21.8 276.2-70.6 31.9-29.5 46-14.1 74 .6 6 3.6 13.3 8.4 6.6 17.4-6.7 9-70.1 35.8-108 54.8-7.4-2.4-39.2-1.1-52.7 15.9-10.5 15.3 8.4 22.7 15.8 30.7z" clip-rule="evenodd" class="colorff6565 svgShape"></path><path fill="#ff6565" fill-rule="evenodd" d="M1458.4 1627.8c14.5 32.5 13.1 83.7 1.9 100.8-21.4 41.7-46.2 55-69.2 82.5-35.5-12.6-99.1-34.9-74.7-89.3 6.9 2.4 20.7 3.8 39.4-11.5 5.3-8 15.8-18.2 2.8-33.4 30.2-19 64.5-36.4 99.8-49.1z" clip-rule="evenodd" class="colorff6565 svgShape"></path><path fill="#ffcccc" fill-rule="evenodd" d="M1325.5 1710.7c17.1.3 31.2-7 31.3-16.1.1-9.1-13.7-16.7-30.8-17-17.1-.3-31.2 6.9-31.3 16.1-.1 9.1 13.7 16.8 30.8 17z" clip-rule="evenodd" class="colorfcc svgShape"></path><path fill="#ff9898" fill-rule="evenodd" d="M1325.6 1704c10.6.2 19.4-4.1 19.4-9.5.1-5.4-8.5-9.9-19.1-10.1-10.6-.2-19.4 4.1-19.4 9.5-.1 5.4 8.5 9.9 19.1 10.1z" clip-rule="evenodd" class="colorff9898 svgShape"></path><path fill="#42c5a0" fill-rule="evenodd" d="M1104.7 1936.2c.7-4 1.7-7.8 2.9-11.6 1.4 8.4 2.2 17 2.5 25.5-1.5-4.7-3.4-9.3-5.4-13.9zm-879.3 0c.8-4 1.8-7.8 2.9-11.6 1.4 8.4 2.2 17 2.7 25.5-1.5-4.7-3.3-9.3-5.6-13.9zm452.7 0c.8-4 1.8-7.8 2.9-11.6 1.4 8.4 2.2 17 2.7 25.5-1.6-4.7-3.4-9.3-5.6-13.9zm217.2 0c-.7-4-1.7-7.8-2.9-11.6-1.4 8.4-2.2 17-2.5 25.5 1.4-4.7 3.2-9.3 5.4-13.9zm-13.1-35.2c-3.1-5.4-6.7-10.9-11-16.2-2.9 9.5-5 19-6.6 28.6 2.5 4.7 4.7 9.6 6.6 14.7 3.1-9.2 6.7-18.2 11-27.1zm-10.6-17.4c4.7 4 9.1 8.3 13 12.7 4.2-8 8.8-15.6 14.2-22.9-2.2-2.9-4.5-5.8-7-8.6 2.9 2.1 5.7 4.4 8.2 6.7 8-10.6 17.3-20.6 28.3-29.7 2.5-4.7 5.2-9.5 8.1-14.2-1.4 3.7-2.7 7.2-3.8 10.7.4-.3.7-.5 1-.8-.4.5-.7.9-1.1 1.4-6.8 21.4-9.6 41-9.4 59.3 4.2 6.3 7.7 12.7 10.8 19.1 2.7-14.4 6.8-28.9 13-43.1-2.4-3.1-4.9-6.3-7.7-9.5 3.1 2.3 6 4.7 8.8 7.2 3.5-7.8 7.5-15.4 12.4-22.9-2.9-3.8-5.9-7.6-9.2-11.5 3.8 2.9 7.4 6 10.9 9 3.9-5.8 8.1-11.5 13-17.1-3.8 6.9-7.1 13.5-9.8 20 5 4.9 9.8 9.9 14.1 15 4.6-7.5 9.9-14.8 15.6-22-5.9-9.9-12.8-20-21.2-30.3 9.8 7.8 18.3 16.1 26 24.8 7.7-8.7 16.3-17 26.1-24.8-8.4 10.2-15.4 20.3-21.4 30.3 5.9 7.2 11.2 14.5 15.8 22 4.3-5 9.1-10.1 14.1-15-2.8-6.6-6-13.2-9.8-20 4.7 5.7 9.1 11.3 13 17.1 3.5-3.1 7.1-6.1 10.9-9-3.4 3.8-6.4 7.6-9.2 11.5 4.9 7.5 8.9 15.1 12.4 22.9 2.8-2.4 5.7-4.9 8.8-7.2-2.8 3.2-5.3 6.4-7.7 9.5 6.1 14.2 10.3 28.8 13 43.1 3.1-6.4 6.6-12.8 10.8-19.1.3-18.4-2.5-37.9-9.4-59.3-.4-.5-.8-.9-1.1-1.4.3.3.6.5 1 .8-1.3-3.5-2.5-7-3.8-10.7 2.9 4.7 5.6 9.5 8.1 14.2 11 9 20.4 19.1 28.2 29.7 2.7-2.3 5.4-4.6 8.4-6.7-2.5 2.8-4.9 5.7-7 8.6 5.4 7.3 10.1 15 14.1 22.9 3.9-4.4 8.2-8.7 13.1-12.7-7.5-23.7-19.8-47.4-39.5-71.4 28.3 22.6 47.5 50 60.5 78.8 3.1-4 6.3-7.8 9.8-11.6-3.6-15.9-9.8-32.4-19.4-49.9 11.6 13.6 20.4 27.8 27.1 42.5 2.8-2.4 5.6-4.9 8.7-7.2-2.7 3.2-5.3 6.4-7.7 9.5 6.3 14.2 10.3 28.8 13 43.1 3.1-6.4 6.7-12.8 10.8-19.1v-1.1c-3.5-5.7-7.7-11.3-12.4-17.1 4.5 3.5 8.7 7.2 12.4 11-.6-19.6-4.5-40.5-13.3-63.5 11.7 18.7 19.4 37.8 23.9 56.7 2.9-3.4 6-6.6 9.2-9.8-2.4-3.2-5-6.6-7.8-9.8 3.5 2.6 6.7 5.2 9.8 8.1 2.9-2.9 6.3-5.5 9.6-8.1-2.8 3.2-5.4 6.6-7.8 9.8 3.4 3.2 6.4 6.4 9.2 9.8 4.6-19 12.1-38.1 23.9-56.7-8.7 22.9-12.7 43.9-13.3 63.5 3.9-3.8 8-7.5 12.6-11-4.9 5.8-9.1 11.5-12.6 17.1v1.1c4.2 6.3 7.7 12.7 10.8 19.1 2.7-14.4 6.7-28.9 13-43.1-2.4-3.1-4.9-6.3-7.7-9.5 3.1 2.3 6 4.7 8.7 7.2 6.7-14.7 15.5-28.9 27.2-42.5-9.8 17.4-15.9 34-19.5 49.9 3.5 3.8 6.8 7.6 9.8 11.6 13-28.8 32.1-56.1 60.6-78.8-19.7 24-32.1 47.7-39.5 71.4 4.7 4 9.1 8.3 13 12.7 4-8 8.8-15.6 14.1-22.9-2.1-2.9-4.5-5.8-6.8-8.6 2.8 2.1 5.6 4.4 8.2 6.7 7.8-10.6 17.2-20.6 28.3-29.7 2.4-4.7 5.2-9.5 8.1-14.2-1.4 3.7-2.7 7.2-3.8 10.7.3-.3.6-.5 1-.8-.4.5-.8.9-1.3 1.4-6.8 21.4-9.5 41-9.2 59.3 4 6.3 7.7 12.7 10.8 19.1 2.5-14.4 6.7-28.9 12.8-43.1-2.4-3.1-4.9-6.3-7.5-9.5 2.9 2.3 5.9 4.7 8.7 7.2 6.6-14.7 15.5-28.9 27.1-42.5-9.6 17.4-15.9 34-19.4 49.9 3.5 3.8 6.7 7.6 9.8 11.6 6.1-13.6 13.5-26.9 22.9-39.6-3.4-4.6-7-9.2-10.9-13.8 4.6 3.5 8.9 7.2 13 11 6-8 12.7-15.6 20.1-22.8-3.2-4.6-6.7-9-10.5-13.6 4.6 3.7 8.8 7.3 13 11.2 4-3.8 8.4-7.5 12.8-11.2-3.8 4.6-7.1 9-10.3 13.6 7.4 7.2 14 14.8 20 22.8 4-3.8 8.4-7.5 13-11-3.9 4.6-7.5 9.2-10.9 13.8 9.4 12.7 16.9 26 23 39.6 2.9-4 6.1-7.8 9.8-11.6-3.6-15.9-9.9-32.4-19.5-49.9 11.7 13.6 20.5 27.8 27.1 42.5 2.8-2.4 5.7-4.9 8.8-7.2-2.8 3.2-5.3 6.4-7.7 9.5 6.1 14.2 10.3 28.8 13 43.1 3.1-6.4 6.6-12.8 10.8-19.1.3-18.4-2.5-37.9-9.4-59.3-.4-.5-.8-.9-1.1-1.4.3.3.6.5 1 .8-1.3-3.5-2.5-7-3.8-10.7 2.9 4.7 5.6 9.5 8.1 14.2 11 9 20.4 19.1 28.2 29.7 2.7-2.3 5.4-4.6 8.4-6.7-2.5 2.8-4.7 5.7-7 8.6 5.4 7.3 10.1 15 14.2 22.9 3.8-4.4 8.1-8.7 13-12.7-7.5-23.7-19.8-47.4-39.5-71.4 28.3 22.6 47.5 50 60.5 78.8 3.1-4 6.3-7.8 9.8-11.6-3.6-15.9-9.8-32.4-19.4-49.9 11.6 13.6 20.4 27.8 27.1 42.5 2.8-2.4 5.6-4.9 8.7-7.2-2.7 3.2-5.3 6.4-7.7 9.5 6.3 14.2 10.3 28.8 13 43.1 3.1-6.4 6.7-12.8 10.8-19.1v-1.1c-3.5-5.7-7.7-11.3-12.4-17.1 4.5 3.5 8.7 7.2 12.4 11-.6-19.6-4.5-40.5-13.3-63.5 11.7 18.7 19.4 37.8 23.9 56.7 2.9-3.4 6-6.6 9.2-9.8-2.4-3.2-5-6.6-7.8-9.8 3.5 2.6 6.7 5.2 9.8 8.1 3.1-2.9 6.3-5.5 9.6-8.1-2.8 3.2-5.4 6.6-7.8 9.8 3.4 3.2 6.4 6.4 9.2 9.8 4.6-19 12.1-38.1 23.9-56.7-8.7 22.9-12.7 43.9-13.3 63.5 3.9-3.8 8-7.5 12.6-11-4.9 5.8-9.1 11.5-12.6 17.1v1.1c4.2 6.3 7.7 12.7 10.8 19.1 2.7-14.4 6.8-28.9 13-43.1-2.4-3.1-4.9-6.3-7.7-9.5 3.1 2.3 6 4.7 8.7 7.2 6.7-14.7 15.5-28.9 27.2-42.5-9.8 17.4-15.9 34-19.5 49.9 3.5 3.8 6.8 7.6 9.8 11.6 13-28.8 32.1-56.1 60.6-78.8-19.7 24-32.1 47.7-39.5 71.4 4.7 4 9.1 8.3 13 12.7 4-8 8.8-15.6 14.1-22.9-2.1-2.9-4.5-5.8-6.8-8.6 2.8 2.1 5.6 4.4 8.2 6.7 7.8-10.6 17.2-20.6 28.3-29.7 2.4-4.7 5.2-9.5 8.1-14.2-1.4 3.7-2.7 7.2-3.8 10.7.3-.3.6-.5 1-.8-.4.5-.8.9-1.3 1.4-6.8 21.4-9.5 41-9.2 59.3 4 6.3 7.7 12.7 10.8 19.1 2.5-14.4 6.7-28.9 12.8-43.1-2.4-3.1-4.9-6.3-7.5-9.5 2.9 2.3 5.9 4.7 8.7 7.2 6.6-14.7 15.5-28.9 27.1-42.5-9.6 17.4-15.9 34-19.4 49.9 3.5 3.8 6.7 7.6 9.8 11.6 12.8-28.8 32.1-56.1 60.5-78.8-27.9 34.1-41.2 67.4-46.5 101.2 2.5 4.7 4.6 9.6 6.6 14.7 10.9-33 29.7-65.5 62.6-90.5-32.1 37.5-42.3 74.5-44 112.6 5.7-17.4 15.5-34.7 33-48-13.8 16.1-19.8 32.1-22.1 48.5H105.3c-2.2-16.4-8.2-32.4-22.1-48.5 17.3 13.3 27.2 30.6 32.8 48-1.7-38.1-11.9-75.1-43.8-112.6 32.8 25.1 51.5 57.5 62.6 90.5 1.8-5 4-9.9 6.6-14.7-5.3-33.8-18.6-67.1-46.5-101.2 28.3 22.6 47.6 50 60.5 78.8 3.1-4 6.3-7.8 9.8-11.6-3.6-15.9-9.8-32.4-19.4-49.9 11.6 13.6 20.4 27.8 27.1 42.5 2.8-2.4 5.6-4.9 8.7-7.2-2.7 3.2-5.3 6.4-7.7 9.5 6.3 14.2 10.3 28.8 13 43.1 3.1-6.4 6.7-12.8 10.8-19.1.3-18.4-2.4-37.9-9.2-59.3-.4-.5-.8-.9-1.3-1.4.4.3.7.5 1 .8-1.1-3.5-2.4-7-3.8-10.7 2.9 4.7 5.7 9.5 8.1 14.2 11 9 20.4 19.1 28.3 29.7 2.7-2.3 5.4-4.6 8.2-6.7-2.4 2.8-4.7 5.7-6.8 8.6 5.3 7.3 10.1 15 14.1 22.9 3.9-4.4 8.2-8.7 13-12.7-7.4-23.7-19.8-47.4-39.5-71.4 28.5 22.6 47.6 50 60.6 78.8 2.9-4 6.1-7.8 9.8-11.6-3.6-15.9-9.8-32.4-19.5-49.9 11.7 13.6 20.5 27.8 27.1 42.5 2.8-2.4 5.7-4.9 8.8-7.2-2.8 3.2-5.3 6.4-7.7 9.5 6.1 14.2 10.3 28.8 13 43.1 3.1-6.4 6.6-12.8 10.8-19.1v-1.1c-3.5-5.7-7.7-11.3-12.6-17.1 4.6 3.5 8.7 7.2 12.4 11-.6-19.6-4.5-40.5-13.1-63.5 11.7 18.7 19.3 37.8 23.9 56.7 2.8-3.4 5.9-6.6 9.2-9.8-2.4-3.2-5-6.6-7.8-9.8 3.4 2.6 6.6 5.2 9.6 8.1 3.1-2.9 6.3-5.5 9.8-8.1-2.8 3.2-5.4 6.6-7.8 9.8 3.2 3.2 6.3 6.4 9.2 9.8 4.5-19 12.1-38.1 23.9-56.7-8.8 22.9-12.7 43.9-13.3 63.5 3.8-3.8 8-7.5 12.4-11-4.9 5.8-8.9 11.5-12.4 17.1v1.1c4 6.3 7.7 12.7 10.8 19.1 2.5-14.4 6.7-28.9 12.8-43.1-2.2-3.1-4.9-6.3-7.5-9.5 3.1 2.3 5.9 4.7 8.7 7.2 6.7-14.7 15.5-28.9 27.1-42.5-9.6 17.4-15.9 34-19.4 49.9 3.5 3.8 6.7 7.6 9.8 11.6 12.8-28.8 32.1-56.1 60.5-78.8-19.7 24-32.1 47.7-39.5 71.4 4.7 4 9.1 8.3 13 12.7 4.2-8 8.8-15.6 14.2-22.9-2.2-2.9-4.5-5.8-7-8.6 2.9 2.1 5.7 4.4 8.2 6.7 8-10.6 17.3-20.6 28.3-29.7 2.5-4.7 5.2-9.5 8.1-14.2-1.4 3.7-2.7 7.2-3.8 10.7.4-.3.7-.5 1-.8-.4.5-.7.9-1.1 1.4-6.8 21.4-9.6 41-9.4 59.3 4.2 6.3 7.7 12.7 10.8 19.1 2.7-14.4 6.8-28.9 13-43.1-2.4-3.1-4.9-6.3-7.7-9.5 3.1 2.3 6 4.7 8.8 7.2 6.6-14.7 15.4-28.9 27.1-42.5-9.8 17.4-15.9 34-19.5 49.9 3.5 3.8 6.8 7.6 9.8 11.6 6.1-13.6 13.7-26.9 22.9-39.6-3.2-4.6-6.8-9.2-10.8-13.8 4.6 3.5 8.9 7.2 13 11 5.9-8 12.6-15.6 20-22.8-3.2-4.6-6.7-9-10.3-13.6 4.5 3.7 8.8 7.3 12.8 11.2 4-3.8 8.4-7.5 13-11.2-3.8 4.6-7.3 9-10.5 13.6 7.4 7.2 14.1 14.8 20.1 22.8 4-3.8 8.4-7.5 13-11-3.9 4.6-7.5 9.2-10.9 13.8 9.2 12.7 16.8 26 22.9 39.6 3.1-4 6.3-7.8 9.8-11.6-3.5-15.9-9.8-32.4-19.4-49.9 11.6 13.6 20.4 27.8 27.1 42.5 2.8-2.4 5.6-4.9 8.7-7.2-2.7 3.2-5.3 6.4-7.7 9.5 6.3 14.2 10.3 28.8 13 43.1 3.1-6.4 6.7-12.8 10.8-19.1.3-18.4-2.4-37.9-9.2-59.3-.4-.5-.8-.9-1.3-1.4.4.3.7.5 1 .8-1.1-3.5-2.4-7-3.8-10.7 2.9 4.7 5.7 9.5 8.1 14.2 11 9 20.4 19.1 28.3 29.7 2.7-2.3 5.4-4.6 8.2-6.7-2.4 2.8-4.7 5.7-6.8 8.6 5.3 7.3 10.1 15 14.1 22.9 3.9-4.4 8.2-8.7 13-12.7-7.4-23.7-19.8-47.4-39.5-71.4 28.5 22.6 47.6 50 60.6 78.8 2.9-4 6.3-7.8 9.8-11.6-3.6-15.9-9.8-32.4-19.5-49.9 11.7 13.6 20.5 27.8 27.1 42.5 2.8-2.4 5.7-4.9 8.8-7.2-2.8 3.2-5.3 6.4-7.7 9.5 6.1 14.2 10.3 28.8 13 43.1 3.1-6.4 6.6-12.8 10.8-19.1v-1.1c-3.5-5.7-7.7-11.3-12.6-17.1 4.6 3.5 8.7 7.2 12.4 11-.6-19.6-4.5-40.5-13.1-63.5 11.7 18.7 19.3 37.8 23.9 56.7 2.8-3.4 5.9-6.6 9.2-9.8-2.4-3.2-5-6.6-7.8-9.8 3.4 2.6 6.6 5.2 9.6 8.1 3.1-2.9 6.3-5.5 9.8-8.1-2.8 3.2-5.4 6.6-7.8 9.8 3.2 3.2 6.3 6.4 9.2 9.8 4.5-19 12.1-38.1 23.9-56.7-8.8 22.9-12.7 43.9-13.3 63.5 3.8-3.8 8-7.5 12.4-11-4.9 5.8-8.9 11.5-12.4 17.1v1.1c4 6.3 7.7 12.7 10.8 19.1 2.7-14.4 6.7-28.9 13-43.1-2.4-3.1-5-6.3-7.7-9.5 3.1 2.3 5.9 4.7 8.7 7.2 6.7-14.7 15.5-28.9 27.1-42.5-9.6 17.4-15.9 34-19.4 49.9 3.5 3.8 6.7 7.6 9.8 11.6 12.8-28.8 32.1-56.1 60.5-78.8-20.5 24-32.9 47.7-40.3 71.4zm92.2-30.2c-3.5 8.9-6.1 17.4-8.1 25.8 3.5 3.8 6.8 7.6 9.8 11.6 2.9-6.4 6.1-12.7 9.6-19-3.4-6-7-12.1-11.3-18.4zm36.1-2.4c-4.5 8.6-8.1 17.1-11.2 25.7 4.2 6.1 7.8 12.2 11.2 18.5 3.4-6.3 7.1-12.4 11.3-18.5-3-8.6-6.7-17.1-11.3-25.7zm-15.9 40.8c-1.8 7.2-3.4 14.4-4.5 21.6 2.5 4.7 4.6 9.6 6.6 14.7 1.4-4.4 3.1-8.9 4.7-13.2-1.6-7.6-3.9-15.4-6.8-23.1zm52.2-38.4c-4.3 6.3-8.1 12.4-11.3 18.5 3.5 6.3 6.7 12.5 9.6 19 2.9-4 6.1-7.8 9.8-11.6-1.9-8.4-4.6-17-8.1-25.9zm-20.4 38.4c-2.8 7.6-5 15.4-6.7 23.1 1.7 4.3 3.4 8.7 4.7 13.2 2-5 4-9.9 6.6-14.7-1.1-7.2-2.6-14.4-4.6-21.6zm-459.9 47.9c-.7-2.6-1.4-5.2-2.4-7.8-.7 6-1.3 12.1-1.5 18.2 1.1-3.5 2.4-6.9 3.9-10.4zm-14.9-31.4c-1.5-2.1-3.2-4.3-5-6.3 2 1.5 3.9 3.1 5.7 4.7 3.6-8 7.7-15.8 12.4-23.4-3.2-7.5-7.1-14.8-11.7-22.2-8 17.3-12.7 34.7-15.5 52.2 2.5 4.7 4.6 9.6 6.6 14.7 2-6.5 4.5-13.1 7.5-19.7zm14.1 13.7c2 2.8 3.8 5.7 5.3 8.6 1.7-2.9 3.5-5.8 5.4-8.6-1.4-7.3-3.1-14.7-5.4-22-2.3 7.3-4.1 14.6-5.3 22zm9.9 17.7c1.4 3.5 2.7 6.9 3.8 10.4-.3-6.1-.7-12.2-1.4-18.2-1 2.6-1.9 5.2-2.4 7.8zm-20-84.1c5.7 6 10.8 12.1 15.4 18.5 4.6-6.4 9.8-12.5 15.4-18.5-4.2-8.7-9.4-17.4-15.4-26.3-6 8.8-11 17.6-15.4 26.3zm21.7 27.8c4.7 7.6 8.9 15.4 12.6 23.4 1.8-1.7 3.6-3.2 5.7-4.7-1.8 2-3.5 4.1-5 6.3 2.8 6.6 5.3 13.2 7.5 19.7 1.8-5 4-9.9 6.6-14.7-2.8-17.4-7.7-34.9-15.5-52.2-4.8 7.4-8.7 14.7-11.9 22.2zm213.3 26.2c2.5 3.7 4.7 7.5 6.7 11.3 2.1-3.8 4.3-7.6 6.8-11.3.6-5.7 1.4-11.5 2.5-17.1-2.7-5.2-5.7-10.2-9.4-15.3-3.5 5-6.6 10.1-9.4 15.3 1.3 5.6 2.1 11.4 2.8 17.1zm115.3.7c2.8 4.1 5.2 8.4 7.4 12.8 1.5-2.3 3.2-4.4 4.9-6.6.7-8 1.7-16.1 3.4-24.2-1.8-3.4-3.8-6.9-6-10.2-4.2 9.4-7.3 18.8-9.7 28.2zm10.5 19.6c.4.9.8 1.8 1.3 2.6 0-1.8 0-3.8.1-5.8-.5 1.1-1 2.1-1.4 3.2zm1.1-51.8c2.1 2 3.9 4.1 5.7 6.3 2.9-12.1 7.1-24.3 12.8-36.4-7.6 10-13.6 20-18.5 30.1zm-67.3 7.3c-2.8 14.5-3.4 28.8-2.4 42.7 2.7-9.6 5.9-19.3 9.8-28.8-2.2-4.6-4.6-9.3-7.4-13.9zm114.8 0c-2.7 14.5-3.2 28.8-2.4 42.7 2.7-9.6 5.9-19.3 9.8-28.8-2.1-4.6-4.6-9.3-7.4-13.9zm-263 15.6c3.1-5.4 6.7-10.9 10.9-16.2 2.9 9.5 5 19 6.6 28.6-2.5 4.7-4.6 9.6-6.6 14.7-3-9.2-6.6-18.2-10.9-27.1zm-13.3 9.3c-2.7 4.1-5.2 8.4-7.3 12.8-1.5-2.3-3.2-4.4-5-6.6-.6-8-1.7-16.1-3.2-24.2 1.8-3.4 3.8-6.9 5.9-10.2 4.1 9.4 7.4 18.8 9.6 28.2zm-10.5 19.6c-.4.9-.8 1.8-1.1 2.6 0-1.8-.1-3.8-.1-5.8.4 1.1.8 2.1 1.2 3.2zm-1.1-51.8c-2 2-3.9 4.1-5.7 6.3-2.9-12.1-7-24.3-12.7-36.4 7.5 10 13.7 20 18.4 30.1zm67.4 7.3c2.7 14.5 3.2 28.8 2.4 42.7-2.7-9.6-5.9-19.3-9.8-28.8 2.1-4.6 4.6-9.3 7.4-13.9zm-114.9 0c2.8 14.5 3.4 28.8 2.4 42.7-2.7-9.6-5.9-19.3-9.8-28.8 2.3-4.6 4.6-9.3 7.4-13.9zm-176.3 50.8c-.7-4-1.7-7.8-2.9-11.6-1.4 8.4-2.2 17-2.5 25.5 1.3-4.7 3.1-9.3 5.4-13.9zm-13.1-35.2c-3.1-5.4-6.7-10.9-11-16.2-2.9 9.5-5 19-6.6 28.6 2.5 4.7 4.7 9.6 6.6 14.7 3-9.2 6.6-18.2 11-27.1zm-102.3 8.6c2.5 3.7 4.7 7.5 6.7 11.3 2.1-3.8 4.3-7.6 6.8-11.3.6-5.7 1.4-11.5 2.5-17.1-2.7-5.2-5.7-10.2-9.4-15.3-3.5 5-6.6 10.1-9.4 15.3 1.3 5.6 2.1 11.4 2.8 17.1zm115.4.7c2.8 4.1 5.2 8.4 7.4 12.8 1.5-2.3 3.2-4.4 4.9-6.6.7-8 1.7-16.1 3.4-24.2-1.8-3.4-3.8-6.9-6-10.2-4.3 9.4-7.3 18.8-9.7 28.2zm10.4 19.6c.4.9.8 1.8 1.3 2.6 0-1.8 0-3.8.1-5.8-.5 1.1-.9 2.1-1.4 3.2zm1.2-51.8c2.1 2 3.9 4.1 5.7 6.3 2.9-12.1 7.1-24.3 12.8-36.4-7.6 10-13.6 20-18.5 30.1zm-67.3 7.3c-2.8 14.5-3.4 28.8-2.4 42.7 2.7-9.6 5.9-19.3 9.8-28.8-2.3-4.6-4.6-9.3-7.4-13.9zm114.7 0c-2.7 14.5-3.2 28.8-2.4 42.7 2.7-9.6 5.9-19.3 9.8-28.8-2.1-4.6-4.6-9.3-7.4-13.9zm-263 15.6c3.1-5.4 6.7-10.9 10.9-16.2 2.9 9.5 5 19 6.6 28.6-2.5 4.7-4.6 9.6-6.6 14.7-3-9.2-6.6-18.2-10.9-27.1zm-13.3 9.3c-2.7 4.1-5.2 8.4-7.4 12.8-1.4-2.3-3.1-4.4-4.9-6.6-.6-8-1.7-16.1-3.2-24.2 1.8-3.4 3.8-6.9 5.9-10.2 4.2 9.4 7.4 18.8 9.6 28.2zm-10.5 19.6c-.4.9-.8 1.8-1.1 2.6 0-1.8-.1-3.8-.1-5.8.4 1.1.8 2.1 1.2 3.2zm-1.1-51.8c-2 2-3.9 4.1-5.7 6.3-2.9-12.1-7-24.3-12.7-36.4 7.5 10 13.7 20 18.4 30.1zm67.5 7.3c2.7 14.5 3.2 28.8 2.4 42.7-2.7-9.6-5.9-19.3-9.8-28.8 2.1-4.6 4.6-9.3 7.4-13.9zm-114.9 0c2.8 14.5 3.4 28.8 2.4 42.7-2.7-9.6-5.9-19.3-9.8-28.8 2-4.6 4.6-9.3 7.4-13.9zm1390.9 50.8c.7-4 1.7-7.8 2.9-11.6 1.4 8.4 2.2 17 2.5 25.5-1.5-4.7-3.3-9.3-5.4-13.9zm217.1 0c-.7-4-1.7-7.8-2.9-11.6-1.4 8.4-2.1 17-2.5 25.5 1.5-4.7 3.3-9.3 5.4-13.9zm-13.1-35.2c-3.1-5.4-6.7-10.9-10.9-16.2-2.9 9.5-5 19-6.6 28.6 2.4 4.7 4.6 9.6 6.6 14.7 3-9.2 6.6-18.2 10.9-27.1zm-326.3 38.7c-.6-2.6-1.4-5.2-2.4-7.8-.7 6-1.3 12.1-1.5 18.2 1.1-3.5 2.5-6.9 3.9-10.4zm-14.9-31.4c-1.5-2.1-3.2-4.3-5-6.3 2.1 1.5 3.9 3.1 5.7 4.7 3.6-8 7.8-15.8 12.6-23.4-3.2-7.5-7.1-14.8-11.9-22.2-7.8 17.3-12.7 34.7-15.5 52.2 2.5 4.7 4.6 9.6 6.6 14.7 2.2-6.5 4.7-13.1 7.5-19.7zm14.1 13.7c2 2.8 3.8 5.7 5.4 8.6 1.5-2.9 3.4-5.8 5.3-8.6-1.3-7.3-3.1-14.7-5.3-22-2.4 7.3-4 14.6-5.4 22zm9.9 17.7c1.5 3.5 2.8 6.9 3.9 10.4-.3-6.1-.8-12.2-1.5-18.2-1 2.6-1.7 5.2-2.4 7.8zm-20-84.1c5.7 6 10.9 12.1 15.5 18.5 4.6-6.4 9.6-12.5 15.4-18.5-4.3-8.7-9.4-17.4-15.4-26.3-6 8.8-11.2 17.6-15.5 26.3zm21.7 27.8c4.9 7.6 8.9 15.4 12.6 23.4 1.8-1.7 3.8-3.2 5.7-4.7-1.8 2-3.5 4.1-5 6.3 2.8 6.6 5.3 13.2 7.5 19.7 2-5 4-9.9 6.6-14.7-2.8-17.4-7.5-34.9-15.5-52.2-4.7 7.4-8.6 14.7-11.9 22.2zm213.3 26.2c2.5 3.7 4.7 7.5 6.8 11.3 2-3.8 4.2-7.6 6.7-11.3.6-5.7 1.5-11.5 2.7-17.1-2.8-5.2-5.9-10.2-9.4-15.3-3.6 5-6.7 10.1-9.4 15.3 1.2 5.6 2.1 11.4 2.6 17.1zm115.3.7c2.8 4.1 5.3 8.4 7.4 12.8 1.5-2.3 3.2-4.4 5-6.6.6-8 1.7-16.1 3.2-24.2-1.8-3.4-3.8-6.9-5.9-10.2-4.1 9.4-7.3 18.8-9.7 28.2zm10.7 19.6c.4.9.7 1.8 1.1 2.6 0-1.8 0-3.8.1-5.8-.4 1.1-.8 2.1-1.2 3.2zm1.1-51.8c2 2 3.9 4.1 5.7 6.3 2.9-12.1 7-24.3 12.7-36.4-7.5 10-13.7 20-18.4 30.1zm-67.5 7.3c-2.7 14.5-3.2 28.8-2.4 42.7 2.7-9.6 5.9-19.3 9.8-28.8-2.1-4.6-4.6-9.3-7.4-13.9zm114.9 0c-2.8 14.5-3.4 28.8-2.5 42.7 2.8-9.6 6-19.3 9.9-28.8-2.2-4.6-4.6-9.3-7.4-13.9zm-263.2 15.6c3.1-5.4 6.7-10.9 11-16.2 2.8 9.5 5 19 6.4 28.6-2.4 4.7-4.6 9.6-6.4 14.7-3-9.2-6.6-18.2-11-27.1zm-13.1 9.3c-2.8 4.1-5.2 8.4-7.4 12.8-1.5-2.3-3.2-4.4-5-6.6-.6-8-1.5-16.1-3.2-24.2 1.8-3.4 3.8-6.9 6-10.2 4.2 9.4 7.2 18.8 9.6 28.2zm-10.4 19.6c-.4.9-.8 1.8-1.3 2.6 0-1.8 0-3.8-.1-5.8.5 1.1.9 2.1 1.4 3.2zm-1.2-51.8c-2.1 2-3.9 4.1-5.7 6.3-2.9-12.1-7.1-24.3-12.8-36.4 7.5 10 13.6 20 18.5 30.1zm67.3 7.3c2.8 14.5 3.4 28.8 2.4 42.7-2.7-9.6-5.9-19.3-9.8-28.8 2.1-4.6 4.6-9.3 7.4-13.9zm-114.7 0c2.7 14.5 3.2 28.8 2.4 42.7-2.7-9.6-6-19.3-9.8-28.8 2.1-4.6 4.4-9.3 7.4-13.9zm-176.5 50.8c-.7-4-1.7-7.8-2.9-11.6-1.4 8.4-2.1 17-2.5 25.5 1.5-4.7 3.3-9.3 5.4-13.9zm-13.2-35.2c-3.1-5.4-6.7-10.9-10.9-16.2-2.9 9.5-5 19-6.6 28.6 2.4 4.7 4.6 9.6 6.6 14.7 3-9.2 6.6-18.2 10.9-27.1zm-102.2 8.6c2.5 3.7 4.7 7.5 6.8 11.3 2-3.8 4.2-7.6 6.7-11.3.6-5.7 1.5-11.5 2.7-17.1-2.8-5.2-5.9-10.2-9.4-15.3-3.6 5-6.7 10.1-9.4 15.3 1.2 5.6 2.1 11.4 2.6 17.1zm115.4.7c2.8 4.1 5.3 8.4 7.4 12.8 1.5-2.3 3.2-4.4 5-6.6.6-8 1.7-16.1 3.2-24.2-1.8-3.4-3.8-6.9-5.9-10.2-4.1 9.4-7.4 18.8-9.7 28.2zm10.6 19.6c.4.9.7 1.8 1.1 2.6 0-1.8 0-3.8.1-5.8-.4 1.1-.8 2.1-1.2 3.2zm1.1-51.8c2 2 3.9 4.1 5.7 6.3 2.8-12.1 7-24.3 12.7-36.4-7.5 10-13.7 20-18.4 30.1zm-67.4 7.3c-2.7 14.5-3.2 28.8-2.4 42.7 2.7-9.6 5.9-19.3 9.8-28.8-2.1-4.6-4.6-9.3-7.4-13.9zm114.9 0c-2.8 14.5-3.4 28.8-2.5 42.7 2.8-9.6 6-19.3 9.9-28.8-2.3-4.6-4.6-9.3-7.4-13.9zm-263.2 15.6c3.1-5.4 6.7-10.9 11-16.2 2.8 9.5 5 19 6.4 28.6-2.4 4.7-4.6 9.6-6.4 14.7-3.1-9.2-6.7-18.2-11-27.1zm-13.1 9.3c-2.8 4.1-5.2 8.4-7.4 12.8-1.5-2.3-3.2-4.4-5-6.6-.6-8-1.5-16.1-3.2-24.2 1.8-3.4 3.8-6.9 6-10.2 4.1 9.4 7.2 18.8 9.6 28.2zm-10.5 19.6c-.4.9-.8 1.8-1.3 2.6 0-1.8 0-3.8-.1-5.8.5 1.1 1 2.1 1.4 3.2zm-1.1-51.8c-2.1 2-3.9 4.1-5.7 6.3-2.9-12.1-7.1-24.3-12.8-36.4 7.4 10 13.6 20 18.5 30.1zm67.3 7.3c2.7 14.5 3.4 28.8 2.4 42.7-2.7-9.6-5.9-19.3-9.8-28.8 2.1-4.6 4.6-9.3 7.4-13.9zm-114.8 0c2.7 14.5 3.2 28.8 2.4 42.7-2.7-9.6-6-19.3-9.8-28.8 2.1-4.6 4.5-9.3 7.4-13.9z" clip-rule="evenodd" class="color42c5a0 svgShape"></path></svg></g></svg>